<?xml version="1.0" standalone="no"?>
<!DOCTYPE svg PUBLIC "-//W3C//DTD SVG 20010904//EN"
 "http://www.w3.org/TR/2001/REC-SVG-20010904/DTD/svg10.dtd">
<svg version="1.0" xmlns="http://www.w3.org/2000/svg"
 width="2100.000000pt" height="2100.000000pt" viewBox="0 0 2100.000000 2100.000000"
 preserveAspectRatio="xMidYMid meet">

<g transform="translate(0.000000,2100.000000) scale(0.100000,-0.100000)"
fill="#000000" stroke="none">
<path d="M10515 20043 c-4 -16 -11 -55 -15 -88 -12 -88 -36 -212 -69 -360 -17
-71 -35 -152 -41 -180 -6 -27 -17 -70 -25 -95 -12 -44 -27 -110 -59 -275 -41
-208 -60 -575 -37 -730 20 -134 84 -240 176 -288 54 -29 193 -31 243 -4 85 46
151 146 173 263 31 160 -16 522 -118 914 -19 74 -46 185 -59 245 -13 61 -39
173 -58 250 -19 77 -40 176 -46 220 -15 103 -30 155 -45 155 -7 0 -16 -12 -20
-27z"/>
<path d="M10005 17039 c-362 -20 -744 -128 -1104 -311 -52 -26 -99 -48 -105
-48 -17 0 -225 -142 -386 -264 -196 -148 -313 -251 -386 -338 -172 -204 -270
-320 -324 -382 -89 -103 -306 -472 -511 -871 -84 -165 -103 -215 -78 -215 27
0 55 29 151 158 236 314 563 588 943 790 180 95 231 119 280 132 17 5 111 31
210 58 508 141 781 185 1230 199 231 7 571 -23 825 -74 195 -38 578 -146 647
-181 41 -21 191 -91 243 -113 30 -13 88 -42 128 -66 41 -24 75 -43 77 -43 17
0 389 -238 500 -320 334 -244 435 -331 799 -689 l310 -304 79 7 c201 17 273
57 318 179 12 34 28 71 36 82 35 52 1 218 -80 388 -120 254 -391 631 -662 921
-90 97 -355 339 -554 505 -59 49 -306 221 -412 286 -176 108 -379 215 -408
215 -5 0 -24 8 -43 17 -56 28 -66 33 -110 48 -59 22 -140 44 -223 60 -38 8
-140 30 -225 50 -85 20 -204 42 -265 50 -201 27 -310 43 -325 49 -16 6 -392
37 -419 35 -9 -1 -79 -5 -156 -10z"/>
<path d="M5304 17003 c8 -16 26 -39 41 -53 66 -61 216 -241 396 -475 86 -110
136 -172 229 -280 106 -123 264 -269 410 -380 128 -97 194 -133 277 -150 62
-13 77 -13 128 1 70 18 113 43 154 90 54 61 65 92 65 179 1 70 -3 87 -28 133
-57 102 -250 261 -456 374 -126 70 -367 187 -510 248 -80 34 -149 66 -155 69
-5 4 -46 23 -90 42 -44 18 -132 62 -195 97 -161 89 -247 132 -265 132 -14 0
-14 -3 -1 -27z"/>
<path d="M15773 16954 c-224 -118 -272 -142 -323 -163 -30 -13 -93 -41 -139
-62 -46 -22 -127 -58 -180 -80 -125 -53 -428 -202 -511 -252 -365 -219 -484
-377 -431 -574 13 -47 56 -104 108 -144 108 -81 275 -54 451 71 196 141 420
360 601 589 238 301 280 352 408 489 173 186 176 209 16 126z"/>
<path d="M12340 14020 c-195 -4 -957 -11 -1694 -14 -736 -3 -1348 -8 -1360
-11 -20 -5 -272 -16 -776 -35 -129 -4 -284 -13 -345 -20 -153 -15 -341 -39
-398 -50 -42 -9 -140 -19 -452 -50 -55 -5 -203 -17 -330 -25 -215 -15 -508
-45 -635 -65 -30 -5 -131 -9 -225 -9 -277 -1 -804 -56 -1045 -109 -50 -11 -50
-36 2 -68 36 -23 59 -29 140 -35 54 -4 101 -10 105 -12 5 -3 91 -10 193 -17
102 -6 257 -18 345 -26 366 -32 1883 -38 1941 -6 15 8 451 13 1575 19 1757 8
2742 6 2969 -8 85 -5 333 -13 550 -19 217 -5 424 -15 460 -21 100 -16 199 -39
218 -49 9 -5 55 -27 102 -50 274 -135 417 -277 484 -485 32 -99 10 -243 -49
-320 -49 -65 -213 -220 -248 -235 -7 -3 -31 -17 -54 -32 -24 -16 -53 -28 -66
-28 -12 0 -31 -6 -42 -14 -11 -7 -49 -16 -84 -20 -35 -3 -70 -11 -78 -17 -15
-13 -132 -14 -855 -4 -360 5 -538 3 -615 -5 -59 -6 -234 -16 -388 -20 -315
-10 -511 -23 -665 -44 -58 -8 -143 -20 -190 -27 -47 -6 -112 -15 -145 -20 -33
-5 -118 -16 -190 -24 -71 -8 -152 -22 -180 -30 -27 -9 -75 -22 -105 -31 -30
-8 -68 -20 -85 -26 -16 -5 -43 -13 -60 -18 -52 -14 -225 -77 -290 -105 -16 -7
-64 -26 -105 -43 -550 -225 -760 -348 -974 -573 -182 -190 -290 -417 -330
-694 -20 -138 -20 -192 0 -307 19 -113 57 -195 128 -277 63 -73 99 -101 158
-125 54 -22 108 -50 193 -100 64 -37 227 -98 367 -137 115 -32 229 -41 373
-28 97 9 170 9 290 1 517 -37 612 -43 635 -39 39 7 493 -10 603 -23 175 -20
458 -69 551 -96 26 -8 58 -14 71 -14 44 0 154 -70 235 -150 70 -69 140 -178
140 -218 0 -10 5 -23 10 -28 20 -20 24 -145 6 -194 -9 -25 -16 -51 -16 -58 0
-19 -63 -160 -85 -190 -25 -34 -99 -112 -106 -112 -4 0 -27 -12 -51 -27 -69
-44 -79 -50 -148 -84 -63 -30 -95 -45 -231 -107 -36 -17 -146 -57 -245 -91
-98 -33 -244 -83 -324 -111 -80 -28 -203 -71 -275 -96 -71 -25 -195 -66 -275
-90 -137 -43 -336 -115 -425 -154 -22 -9 -62 -25 -90 -35 -27 -10 -54 -22 -60
-25 -5 -4 -21 -11 -35 -15 -37 -10 -109 -45 -116 -56 -3 -5 -12 -9 -20 -9 -8
0 -34 -14 -57 -31 -23 -17 -73 -53 -112 -81 -104 -74 -239 -208 -299 -298 -73
-107 -146 -243 -146 -271 0 -8 -7 -24 -15 -35 -8 -10 -15 -29 -15 -42 0 -13
-5 -33 -12 -45 -30 -57 -58 -334 -39 -389 6 -17 14 -80 17 -142 4 -61 13 -136
20 -166 8 -30 14 -73 14 -96 0 -23 7 -61 15 -84 8 -23 15 -62 15 -87 0 -24 7
-60 15 -80 8 -19 15 -50 15 -67 0 -17 5 -47 10 -66 6 -19 15 -69 20 -110 30
-238 84 -457 210 -855 39 -123 98 -383 119 -525 6 -36 15 -96 21 -135 42 -278
56 -448 65 -780 4 -115 11 -250 16 -300 13 -117 46 -268 65 -291 14 -19 14
-19 28 0 31 39 55 210 56 391 0 72 6 164 14 205 8 41 17 118 20 170 12 179 27
305 56 460 30 160 44 248 60 360 5 36 16 97 25 135 15 68 21 137 45 497 15
235 -3 332 -79 433 -63 83 -224 473 -277 670 -29 107 -27 396 4 521 73 301
159 457 380 687 120 125 122 127 282 209 109 56 211 94 330 123 30 7 82 20
115 29 93 26 380 91 480 110 50 9 124 23 165 31 41 8 102 19 135 26 33 6 76
13 95 16 19 2 73 10 120 18 47 8 148 17 226 20 146 5 262 26 394 68 71 24 148
38 270 52 108 12 188 56 451 244 242 173 351 288 410 433 20 47 23 76 27 261
4 237 -5 287 -75 406 -69 117 -241 269 -403 357 -58 32 -289 134 -375 166
-229 86 -442 139 -610 153 -44 4 -100 11 -124 16 -24 5 -161 16 -305 25 -292
16 -543 39 -596 54 -19 5 -69 14 -110 20 -158 21 -226 32 -257 41 -18 6 -63
14 -100 19 -124 17 -253 57 -253 80 0 6 -5 10 -10 10 -24 0 -243 212 -260 251
-5 13 -14 31 -20 39 -16 25 -50 108 -50 122 0 8 -5 19 -11 25 -16 16 -16 120
-1 135 7 7 12 18 12 26 0 7 9 34 21 60 31 71 110 235 120 252 5 8 12 22 16 30
9 22 64 91 93 118 14 13 45 42 70 66 59 55 156 129 206 156 21 12 59 32 83 46
24 13 49 24 55 24 6 0 23 6 38 14 15 8 42 17 60 21 18 4 52 13 76 21 23 8 58
14 76 14 19 0 96 15 172 34 227 56 350 71 789 101 116 8 273 19 350 24 77 6
259 10 405 11 154 0 323 7 405 15 77 8 185 15 240 15 55 0 149 7 210 15 327
43 354 45 745 43 398 -1 424 0 705 48 360 61 882 205 1104 305 118 53 211 139
211 194 0 12 18 64 39 116 58 143 74 288 51 454 -24 167 -132 391 -265 550
-37 44 -73 91 -80 105 -17 33 -109 120 -165 155 -137 86 -364 179 -560 229
-200 50 -259 56 -573 56 -166 1 -360 5 -432 11 -71 5 -184 14 -250 19 -66 5
-167 13 -225 19 -150 14 -884 20 -1300 11z"/>
<path d="M9545 1271 c-75 -20 -148 -79 -186 -153 -18 -34 -23 -60 -23 -123 -1
-71 2 -86 30 -135 114 -202 408 -193 510 16 32 65 37 165 11 226 -22 52 -95
128 -144 150 -48 21 -152 31 -198 19z"/>
<path d="M9844 515 c-8 -19 3 -35 25 -35 23 0 41 19 34 36 -7 18 -52 18 -59
-1z"/>
</g>
</svg>
